<svg width="169" height="34" viewBox="0 0 169 34" fill="none" xmlns="http://www.w3.org/2000/svg">
<g clip-path="url(#clip0_1309_4662)">
<path d="M15.9055 25.7576C13.2641 28.251 8.80486 32.5255 6.92673 33.359C4.61545 34.36 1.11126 33.9361 0.195271 30.9404C0.195271 30.9404 -0.624859 28.7711 1.10061 25.6863C2.82608 22.6016 14.07 2.743 14.07 2.743C14.07 2.743 16.8535 -3.45857 20.4393 2.79287C23.5885 8.3319 31.9141 22.5196 33.7673 25.8537L34.2679 26.8048C34.8997 27.9519 35.0603 29.3011 34.7155 30.5651C34.3706 31.8292 33.5477 32.9083 32.4218 33.5728C29.8229 35.0795 25.1329 32.2975 22.0832 29.4799C19.0334 26.6623 17.3967 25.7219 15.8807 25.7576" fill="url(#paint0_linear_1309_4662)"/>
<path d="M15.9058 25.7576C16.5646 25.0616 17.2769 24.4184 18.036 23.8341C20.4502 22.0174 24.7568 19.5169 29.8089 22.5197C37.3214 27.0222 35.0066 32.0981 32.4326 33.5799C29.8586 35.0618 25.1438 32.2976 22.094 29.48C19.0443 26.6624 17.4182 25.722 15.9058 25.7576Z" fill="#1D2E6D"/>
<path d="M53.0954 17.6041C53.1064 16.5202 52.8294 15.453 52.293 14.5122C51.7683 13.5869 51.0054 12.82 50.0842 12.2917C49.163 11.7635 48.1172 11.4933 47.0562 11.5094C45.9954 11.4813 44.9469 11.7428 44.0226 12.266C43.0984 12.7893 42.3332 13.5545 41.8088 14.4801C41.2659 15.4326 40.9888 16.5142 41.0064 17.6112C40.9857 18.6961 41.2398 19.7685 41.7449 20.728C42.2037 21.6207 42.8927 22.3735 43.7402 22.908C44.61 23.4317 45.6043 23.7109 46.6187 23.7166C47.6331 23.7222 48.6304 23.454 49.506 22.9401C50.0211 22.6122 50.4802 22.2033 50.8657 21.729V22.5482C50.8741 22.8364 50.9948 23.1098 51.202 23.3097C51.4091 23.5095 51.6861 23.6198 51.9734 23.6169H52.0338C52.1776 23.6136 52.3193 23.5819 52.4507 23.5235C52.5822 23.4651 52.7009 23.3811 52.7999 23.2765C52.8989 23.1719 52.9763 23.0486 53.0276 22.9139C53.0789 22.7791 53.1032 22.6355 53.0989 22.4913V17.6112L53.0954 17.6041ZM50.4361 19.6701C50.1198 20.2884 49.641 20.8083 49.0515 21.1733C48.4514 21.5424 47.7601 21.735 47.0562 21.729C46.3521 21.7331 45.6609 21.5394 45.0609 21.1697C44.4594 20.8085 43.9681 20.2885 43.6408 19.6665C43.2967 19.0195 43.1243 18.2945 43.1402 17.5613C43.1215 16.8176 43.2939 16.0816 43.6408 15.4241C43.9712 14.8043 44.4617 14.2851 45.0609 13.9209C45.6674 13.5691 46.3556 13.3839 47.0562 13.3839C47.7568 13.3839 48.445 13.5691 49.0515 13.9209C49.6385 14.289 50.1166 14.808 50.4361 15.4241C50.7652 16.0805 50.9366 16.8052 50.9366 17.54C50.9366 18.2748 50.7652 18.9994 50.4361 19.6558V19.6701Z" fill="white"/>
<path d="M60.8957 23.7162C59.7978 23.7339 58.7152 23.4559 57.7607 22.9112C56.8621 22.3903 56.1201 21.636 55.6128 20.7276C55.0808 19.7767 54.81 18.7011 54.8281 17.6108C54.8088 16.504 55.0742 15.4109 55.5986 14.437C56.0904 13.533 56.8198 12.7815 57.7075 12.2642C58.6478 11.7409 59.7107 11.4801 60.7856 11.509C61.602 11.5019 62.4101 11.6733 63.1537 12.0113C63.8995 12.3643 64.5598 12.876 65.0886 13.5109C65.1812 13.6021 65.2497 13.7149 65.2881 13.8393C65.3265 13.9636 65.3336 14.0955 65.3088 14.2233C65.2305 14.4983 65.0517 14.7337 64.8082 14.8823C64.7115 14.9539 64.6005 15.0037 64.4828 15.0283C64.3652 15.0529 64.2436 15.0517 64.1265 15.0248C63.8663 14.9677 63.6297 14.8322 63.4484 14.6365C63.1073 14.2672 62.692 13.9747 62.2299 13.7782C61.7679 13.5817 61.2696 13.4858 60.7679 13.4966C60.0696 13.4747 59.379 13.6474 58.7726 13.9953C58.2035 14.3435 57.7415 14.8428 57.4376 15.438C57.0951 16.1137 56.9232 16.8635 56.937 17.6215C56.9257 18.3576 57.0978 19.0849 57.4376 19.7374C57.7812 20.3516 58.284 20.861 58.8929 21.2116C59.5017 21.5622 60.1938 21.7409 60.8957 21.7286C61.3524 21.7354 61.8074 21.6717 62.2448 21.5398C62.6318 21.4123 62.9927 21.2156 63.3099 20.9592C63.5073 20.7804 63.7557 20.6683 64.02 20.6386C64.1386 20.6248 64.2588 20.6364 64.3726 20.6727C64.4864 20.7089 64.5913 20.7689 64.6803 20.8488C64.9048 21.0151 65.0553 21.2633 65.0993 21.5398C65.1163 21.6713 65.1009 21.805 65.0544 21.9292C65.008 22.0534 64.932 22.1643 64.833 22.2522C63.762 23.2381 62.3485 23.7637 60.8957 23.7162Z" fill="white"/>
<path d="M72.5549 23.7162C71.4581 23.7339 70.3767 23.4559 69.4235 22.9112C68.5314 22.3878 67.7958 21.6337 67.2933 20.7277C66.764 19.7758 66.4946 18.7006 66.5122 17.6108C66.4929 16.5041 66.7582 15.411 67.2826 14.437C67.7722 13.5325 68.5006 12.7807 69.388 12.2642C70.327 11.7409 71.3888 11.4801 72.4626 11.509C73.2801 11.5015 74.0895 11.6729 74.8342 12.0113C75.5801 12.3643 76.2403 12.876 76.7692 13.5109C76.8609 13.6027 76.9289 13.7155 76.9673 13.8397C77.0057 13.9639 77.0132 14.0956 76.9893 14.2233C76.911 14.4984 76.7323 14.7337 76.4887 14.8823C76.3926 14.9478 76.2836 14.9918 76.169 15.0115C76.0545 15.0312 75.9371 15.026 75.8248 14.9963C75.5633 14.942 75.3251 14.8076 75.1431 14.6116C74.802 14.2423 74.3867 13.9498 73.9247 13.7533C73.4626 13.5568 72.9643 13.4608 72.4626 13.4717C71.7642 13.4481 71.0731 13.6209 70.4673 13.9704C69.8948 14.3154 69.4309 14.8154 69.1288 15.413C68.7854 16.0885 68.6134 16.8385 68.6282 17.5966C68.6169 18.3327 68.789 19.06 69.1288 19.7125C69.4463 20.316 69.9196 20.8229 70.4993 21.18C71.111 21.5486 71.813 21.7386 72.5265 21.7286C72.9844 21.7354 73.4406 21.6717 73.8792 21.5398C74.267 21.4141 74.6281 21.2172 74.9443 20.9592C75.1425 20.7816 75.3904 20.6697 75.6544 20.6386C75.7729 20.6259 75.8928 20.6381 76.0065 20.6743C76.1201 20.7104 76.2251 20.7699 76.3147 20.8488C76.4256 20.9309 76.519 21.0342 76.5897 21.1528C76.6604 21.2715 76.7069 21.403 76.7266 21.5398C76.7449 21.6711 76.7305 21.8049 76.6847 21.9292C76.6388 22.0536 76.5629 22.1645 76.4638 22.2522C75.3993 23.2302 73.9978 23.7551 72.5549 23.7162Z" fill="white"/>
<path d="M89.7103 18.1309C89.803 18.042 89.8762 17.9345 89.9252 17.8155C89.9741 17.6965 89.9976 17.5685 89.9943 17.4399C90.0149 16.3776 89.7926 15.3248 89.3446 14.3622C88.9349 13.4968 88.2837 12.7692 87.47 12.2677C86.5789 11.7437 85.5592 11.4809 84.5268 11.509C83.4519 11.4801 82.3889 11.7409 81.4486 12.2642C80.5663 12.779 79.8418 13.5269 79.3539 14.4263C78.8331 15.4051 78.5715 16.5016 78.5941 17.6108C78.5734 18.7168 78.8493 19.808 79.393 20.7704C79.9209 21.6817 80.6886 22.4297 81.6119 22.9326C82.4234 23.3659 83.3158 23.6255 84.2326 23.6948C85.1493 23.7641 86.0704 23.6416 86.9374 23.3351C87.6081 23.122 88.2365 22.7929 88.7943 22.3626C88.9079 22.2906 89.0006 22.1898 89.0629 22.0703C89.1253 21.9509 89.1551 21.817 89.1493 21.6823C89.135 21.543 89.0927 21.408 89.025 21.2856C88.9572 21.1632 88.8655 21.0558 88.7552 20.9699C88.57 20.8102 88.3318 20.7263 88.0878 20.7348C87.8307 20.7464 87.5831 20.8358 87.3777 20.9912C86.6333 21.5048 85.7564 21.7906 84.8534 21.8141C84.078 21.8308 83.3121 21.6403 82.6344 21.262C82.0094 20.9068 81.4917 20.3886 81.1362 19.7623C80.9008 19.3402 80.7376 18.8815 80.6533 18.4052H89.0002C89.2636 18.4107 89.5186 18.3122 89.7103 18.1309ZM80.6569 16.617C80.7304 16.2069 80.8569 15.8081 81.0332 15.4308C81.3277 14.8098 81.7966 14.2886 82.3823 13.9312C83.0275 13.5521 83.7651 13.3609 84.5126 13.3791C85.1509 13.3509 85.7831 13.5153 86.3274 13.8512C86.8717 14.1871 87.3031 14.679 87.5658 15.2634C87.7639 15.6923 87.8967 16.1486 87.9599 16.617H80.6569Z" fill="white"/>
<path d="M95.5045 23.6239C94.8899 23.6354 94.2874 23.4522 93.7826 23.1003C93.2749 22.7297 92.8744 22.2307 92.6216 21.6541C92.331 20.9925 92.1881 20.2753 92.2027 19.5525V7.50554C92.1957 7.22009 92.2989 6.94296 92.4906 6.73198C92.6824 6.52099 92.9479 6.39244 93.2319 6.37314C93.5158 6.35384 93.7962 6.44529 94.0146 6.6284C94.233 6.81151 94.3724 7.07214 94.4039 7.35593V19.5169C94.3834 19.9823 94.4876 20.4448 94.7057 20.8562C94.7757 21.0054 94.8853 21.1325 95.0224 21.2236C95.1595 21.3147 95.3189 21.3662 95.4832 21.3727H96.0299C96.1639 21.3696 96.297 21.3961 96.4197 21.4503C96.5424 21.5044 96.6517 21.585 96.74 21.6862C96.9297 21.9043 97.0277 22.1878 97.0134 22.4769C97.0152 22.6339 96.9778 22.7888 96.9046 22.9276C96.8314 23.0663 96.7248 23.1845 96.5944 23.2713C96.2822 23.4871 95.9082 23.5947 95.5293 23.5776L95.5045 23.6239Z" fill="white"/>
<path d="M109.276 18.1309C109.369 18.0425 109.443 17.9352 109.492 17.816C109.541 17.6969 109.564 17.5687 109.56 17.4399C109.583 16.3778 109.362 15.3245 108.914 14.3622C108.502 13.4979 107.852 12.7708 107.039 12.2677C106.148 11.7441 105.128 11.4813 104.096 11.509C103.021 11.4801 101.958 11.7409 101.018 12.2642C100.135 12.778 99.4099 13.5261 98.9231 14.4263C98.4039 15.4057 98.1423 16.5018 98.1633 17.6108C98.1421 18.7173 98.4193 19.809 98.9657 20.7704C99.4902 21.6843 100.259 22.4332 101.185 22.9326C101.996 23.3659 102.889 23.6255 103.805 23.6948C104.722 23.7641 105.643 23.6416 106.51 23.3351C107.18 23.1222 107.807 22.793 108.363 22.3626C108.477 22.2904 108.569 22.1895 108.632 22.0701C108.694 21.9507 108.724 21.817 108.718 21.6823C108.686 21.4019 108.544 21.1458 108.324 20.9699C108.139 20.8109 107.901 20.727 107.657 20.7348C107.4 20.7457 107.152 20.8352 106.947 20.9912C106.594 21.2362 106.208 21.4282 105.8 21.5612C105.352 21.7231 104.881 21.8086 104.405 21.8141C103.63 21.8295 102.864 21.639 102.186 21.262C101.562 20.9058 101.044 20.3878 100.688 19.7623C100.451 19.3409 100.287 18.8819 100.205 18.4052H108.555C108.687 18.4103 108.819 18.3887 108.943 18.3415C109.067 18.2944 109.18 18.2228 109.276 18.1309ZM100.222 16.617C100.297 16.2068 100.425 15.808 100.602 15.4308C100.896 14.8082 101.367 14.2865 101.955 13.9312C102.6 13.5511 103.338 13.3598 104.085 13.3791C104.723 13.3516 105.354 13.5164 105.898 13.8522C106.442 14.1881 106.872 14.6796 107.135 15.2634C107.334 15.6922 107.468 16.1484 107.533 16.617H100.222Z" fill="white"/>
<path d="M121.926 13.0089L117.275 22.8651C117.206 23.0806 117.07 23.2685 116.887 23.4016C116.705 23.5348 116.485 23.6064 116.259 23.606C116.035 23.603 115.815 23.5339 115.629 23.4073C115.443 23.2807 115.298 23.1021 115.212 22.8936L110.55 13.0089C110.494 12.8958 110.461 12.7719 110.456 12.6454C110.45 12.5189 110.472 12.3927 110.519 12.2751C110.569 12.1482 110.645 12.0329 110.742 11.9362C110.838 11.8395 110.953 11.7633 111.079 11.7123C111.193 11.6469 111.32 11.6071 111.45 11.5954C111.581 11.5837 111.712 11.6005 111.836 11.6446C112.087 11.7297 112.297 11.9081 112.421 12.1433L116.238 20.4037L120.001 12.1433C120.13 11.9044 120.347 11.7254 120.605 11.6446C120.878 11.5578 121.174 11.5821 121.429 11.7123C121.549 11.7613 121.658 11.8347 121.748 11.928C121.838 12.0213 121.908 12.1324 121.954 12.2543C121.999 12.3761 122.019 12.5061 122.012 12.636C122.004 12.7659 121.97 12.8928 121.912 13.0089H121.926Z" fill="white"/>
<path d="M134.526 18.1065C134.621 18.0186 134.695 17.9115 134.746 17.7924C134.796 17.6732 134.82 17.5447 134.817 17.4154C134.836 16.3534 134.614 15.301 134.167 14.3378C133.747 13.479 133.089 12.7603 132.272 12.2682C131.381 11.7437 130.361 11.4808 129.328 11.5095C128.252 11.4772 127.187 11.7381 126.247 12.2647C125.363 12.7784 124.637 13.5265 124.148 14.4269C123.628 15.4056 123.366 16.5021 123.389 17.6113C123.367 18.7178 123.645 19.8095 124.191 20.7709C124.724 21.6894 125.504 22.4387 126.442 22.9331C127.259 23.3678 128.156 23.6284 129.078 23.6982C130 23.7681 130.927 23.6459 131.799 23.3392C132.469 23.1275 133.096 22.7995 133.653 22.3703C133.765 22.2975 133.858 22.1965 133.92 22.0772C133.982 21.9579 134.012 21.8245 134.008 21.6899C133.993 21.5504 133.95 21.4154 133.881 21.2929C133.813 21.1705 133.721 21.0632 133.61 20.9775C133.425 20.8169 133.187 20.7329 132.943 20.7424C132.686 20.7539 132.439 20.8419 132.232 20.9953C131.879 21.247 131.49 21.4451 131.079 21.5831C130.631 21.7438 130.159 21.828 129.683 21.8324C128.896 21.8539 128.117 21.662 127.429 21.2767C126.804 20.9215 126.286 20.4034 125.931 19.7771C125.687 19.3494 125.523 18.8812 125.444 18.395H133.809C133.942 18.3978 134.073 18.3737 134.197 18.3241C134.32 18.2745 134.432 18.2005 134.526 18.1065ZM125.462 16.6175C125.538 16.2081 125.665 15.8097 125.838 15.4314C126.133 14.8093 126.603 14.2879 127.191 13.9317C127.836 13.5514 128.574 13.3601 129.321 13.3796C129.96 13.3514 130.592 13.5158 131.136 13.8517C131.68 14.1876 132.112 14.6795 132.374 15.2639C132.574 15.6927 132.708 16.1489 132.772 16.6175H125.462Z" fill="white"/>
<path d="M148.266 17.0979V22.5194C148.271 22.6639 148.247 22.8079 148.196 22.9431C148.145 23.0783 148.067 23.202 147.968 23.307C147.869 23.412 147.75 23.4963 147.619 23.5549C147.487 23.6135 147.345 23.6454 147.201 23.6486C147.177 23.6522 147.153 23.6522 147.13 23.6486C146.841 23.6543 146.562 23.5451 146.354 23.3447C146.146 23.1444 146.025 22.8694 146.019 22.58V17.0979C146.05 16.3881 145.893 15.6827 145.564 15.0533C145.28 14.5422 144.846 14.1308 144.322 13.8743C143.767 13.6121 143.16 13.4805 142.546 13.4896C141.968 13.4817 141.396 13.6111 140.878 13.8671C140.403 14.0936 139.993 14.4382 139.688 14.8681C139.404 15.2753 139.252 15.7603 139.252 16.2573V22.5194C139.256 22.6677 139.23 22.8153 139.176 22.9535C139.123 23.0918 139.042 23.2179 138.939 23.3244C138.784 23.477 138.588 23.5815 138.374 23.6255C138.161 23.6696 137.94 23.6513 137.737 23.5729C137.534 23.4945 137.358 23.3592 137.229 23.1832C137.1 23.0072 137.025 22.7978 137.011 22.58V12.6952C137.004 12.5443 137.029 12.3936 137.084 12.253C137.139 12.1124 137.223 11.9851 137.331 11.8795C137.552 11.682 137.839 11.5728 138.135 11.5728C138.431 11.5728 138.718 11.682 138.939 11.8795C139.043 11.9875 139.124 12.1153 139.178 12.2555C139.232 12.3956 139.257 12.5452 139.252 12.6952V12.9089C139.582 12.5765 139.96 12.2956 140.374 12.0754C141.176 11.6421 142.076 11.4226 142.987 11.4378C143.93 11.4219 144.862 11.6461 145.695 12.0897C146.501 12.5274 147.159 13.1957 147.584 14.0096C148.071 14.9636 148.306 16.027 148.266 17.0979Z" fill="white"/>
<path d="M157.397 22.509C157.402 22.6597 157.372 22.8094 157.311 22.947C157.249 23.0845 157.157 23.2063 157.042 23.3034C156.776 23.5145 156.444 23.6232 156.105 23.6097H155.69C154.984 23.6252 154.29 23.4306 153.694 23.0505C153.107 22.671 152.629 22.1427 152.31 21.5188C151.969 20.8427 151.798 20.0929 151.813 19.3352V13.9102H150.801C150.527 13.9234 150.259 13.8303 150.052 13.6501C149.963 13.5698 149.891 13.4715 149.842 13.3616C149.793 13.2518 149.768 13.1329 149.768 13.0125C149.76 12.8801 149.781 12.7475 149.83 12.6243C149.879 12.5012 149.955 12.3904 150.052 12.3001C150.257 12.1167 150.526 12.022 150.801 12.0365H151.813V8.83066C151.813 8.53874 151.928 8.25878 152.134 8.05236C152.34 7.84594 152.619 7.72998 152.91 7.72998C153.201 7.72998 153.48 7.84594 153.686 8.05236C153.891 8.25878 154.007 8.53874 154.007 8.83066V12.0365H155.871C156.144 12.0252 156.411 12.1196 156.616 12.3001C156.714 12.3903 156.79 12.5009 156.84 12.624C156.889 12.7472 156.911 12.8799 156.904 13.0125C156.907 13.1373 156.883 13.2613 156.833 13.3758C156.784 13.4903 156.71 13.5924 156.616 13.6751C156.41 13.8544 156.143 13.9474 155.871 13.9351H154.007V19.3495C153.994 19.8856 154.17 20.4093 154.504 20.8277C154.643 21.0118 154.823 21.1612 155.029 21.2643C155.236 21.3675 155.463 21.4216 155.693 21.4226H156.442C156.57 21.4222 156.695 21.4497 156.81 21.5033C156.926 21.5568 157.028 21.6351 157.11 21.7325C157.301 21.9452 157.404 22.2229 157.397 22.509Z" fill="white"/>
<path d="M164.278 23.7167C163.309 23.7191 162.347 23.549 161.438 23.2144C160.683 22.9679 159.991 22.5581 159.41 22.014C159.307 21.9104 159.228 21.7842 159.181 21.6452C159.133 21.5063 159.118 21.3582 159.137 21.2126C159.152 21.0658 159.197 20.9239 159.271 20.7961C159.344 20.6684 159.444 20.5578 159.563 20.4716C159.68 20.3643 159.817 20.2826 159.967 20.2317C160.117 20.1808 160.275 20.1618 160.433 20.176C160.716 20.2125 160.975 20.3504 161.164 20.5643C161.507 20.9044 161.915 21.17 162.364 21.3444C162.945 21.5885 163.57 21.7098 164.2 21.7006C164.875 21.7427 165.548 21.5972 166.145 21.2802C166.342 21.1766 166.508 21.0238 166.628 20.8365C166.748 20.6492 166.818 20.4339 166.831 20.2116C166.834 19.9831 166.778 19.7576 166.669 19.5568C166.56 19.356 166.402 19.1865 166.209 19.0646C165.485 18.6399 164.681 18.3706 163.848 18.2738C162.36 17.9936 161.283 17.5614 160.618 16.9772C160.301 16.7145 160.047 16.3839 159.874 16.0097C159.702 15.6355 159.615 15.2273 159.62 14.8151C159.595 14.1339 159.83 13.4689 160.277 12.9557C160.738 12.4489 161.321 12.0698 161.97 11.855C162.663 11.6122 163.392 11.4917 164.125 11.4988C165.003 11.4819 165.876 11.6405 166.692 11.9654C167.383 12.2304 167.995 12.6696 168.467 13.2406C168.563 13.3382 168.637 13.4542 168.686 13.5816C168.735 13.709 168.757 13.8451 168.751 13.9815C168.739 14.1074 168.698 14.2287 168.632 14.3366C168.566 14.4445 168.477 14.5362 168.372 14.6049C168.251 14.6865 168.115 14.7425 167.972 14.7695C167.829 14.7965 167.683 14.7938 167.541 14.7616C167.237 14.7137 166.954 14.5761 166.728 14.3662C166.392 14.0396 165.984 13.7957 165.538 13.6538C165.054 13.5076 164.549 13.4403 164.044 13.4544C163.48 13.4375 162.921 13.5495 162.407 13.7821C162.211 13.8576 162.042 13.9909 161.923 14.1645C161.804 14.3381 161.74 14.5438 161.739 14.7545C161.738 15.0075 161.811 15.2554 161.949 15.4669C162.168 15.7398 162.468 15.9367 162.805 16.0297C163.386 16.2501 163.986 16.4182 164.598 16.532C165.5 16.6851 166.377 16.967 167.2 17.3691C167.76 17.6362 168.239 18.048 168.588 18.5624C168.863 19.0275 169.005 19.5602 168.996 20.1012C169.004 20.7499 168.818 21.3861 168.464 21.9285C168.067 22.5075 167.513 22.959 166.866 23.2287C166.049 23.578 165.166 23.7445 164.278 23.7167Z" fill="white"/>
</g>
<defs>
<linearGradient id="paint0_linear_1309_4662" x1="-0.394087" y1="23.5847" x2="36.2155" y2="13.7995" gradientUnits="userSpaceOnUse">
<stop stop-color="#2C4AAA"/>
<stop offset="0.04" stop-color="#2F50B4"/>
<stop offset="0.17" stop-color="#3560CD"/>
<stop offset="0.31" stop-color="#3B6CE1"/>
<stop offset="0.46" stop-color="#3E74EF"/>
<stop offset="0.66" stop-color="#4079F8"/>
<stop offset="1" stop-color="#417BFA"/>
</linearGradient>
<clipPath id="clip0_1309_4662">
<rect width="169" height="34" fill="white"/>
</clipPath>
</defs>
</svg>
